<svg xmlns="http://www.w3.org/2000/svg" width="360" height="640" viewBox="0 0 360 640">
  <rect width="360" height="640" fill="#171717"/>
  <rect x="20" y="40" width="320" height="560" rx="16" fill="#212121" stroke="#404040"/>
  <rect x="40" y="60" width="80" height="24" rx="12" fill="#10a37f" opacity="0.3"/>
  <rect x="130" y="66" width="120" height="12" rx="4" fill="#525252"/>
  <rect x="40" y="110" width="220" height="80" rx="12" fill="#262626" stroke="#404040"/>
  <rect x="56" y="126" width="180" height="10" rx="4" fill="#737373"/>
  <rect x="56" y="144" width="160" height="10" rx="4" fill="#525252"/>
  <rect x="56" y="162" width="140" height="10" rx="4" fill="#525252"/>
  <rect x="180" y="220" width="140" height="60" rx="12" fill="#10a37f" opacity="0.15" stroke="#10a37f"/>
  <rect x="196" y="236" width="108" height="10" rx="4" fill="#10a37f" opacity="0.5"/>
  <rect x="196" y="254" width="90" height="10" rx="4" fill="#10a37f" opacity="0.3"/>
  <rect x="40" y="520" width="280" height="40" rx="8" fill="#262626" stroke="#404040"/>
  <text x="180" y="580" text-anchor="middle" font-family="sans-serif" font-size="14" fill="#10a37f">Chat &amp; Q&amp;A</text>
</svg>
