<svg xmlns="http://www.w3.org/2000/svg" width="360" height="640" viewBox="0 0 360 640">
  <rect width="360" height="640" fill="#171717"/>
  <rect x="20" y="40" width="100" height="560" rx="12" fill="#212121" stroke="#404040"/>
  <rect x="36" y="60" width="68" height="12" rx="4" fill="#10a37f" opacity="0.5"/>
  <rect x="36" y="90" width="68" height="28" rx="6" fill="#10a37f" opacity="0.2" stroke="#10a37f"/>
  <rect x="36" y="130" width="68" height="20" rx="4" fill="#262626"/>
  <rect x="36" y="160" width="68" height="20" rx="4" fill="#262626"/>
  <rect x="36" y="190" width="68" height="20" rx="4" fill="#262626"/>
  <rect x="140" y="40" width="200" height="560" rx="12" fill="#212121" stroke="#404040"/>
  <rect x="160" y="70" width="160" height="16" rx="4" fill="#525252"/>
  <rect x="160" y="110" width="160" height="400" rx="8" fill="#262626" stroke="#404040"/>
  <rect x="176" y="130" width="128" height="12" rx="4" fill="#737373"/>
  <rect x="176" y="152" width="100" height="12" rx="4" fill="#525252"/>
  <text x="180" y="580" text-anchor="middle" font-family="sans-serif" font-size="14" fill="#10a37f">Project Folders</text>
</svg>
