<svg xmlns="http://www.w3.org/2000/svg" width="360" height="640" viewBox="0 0 360 640">
  <rect width="360" height="640" fill="#fff7ed"/>
  <rect x="20" y="40" width="320" height="560" rx="16" fill="#fff" stroke="#fed7aa"/>
  <rect x="40" y="60" width="160" height="20" rx="4" fill="#ffedd5"/>
  <rect x="40" y="100" width="120" height="16" rx="4" fill="#fed7aa"/>
  <rect x="40" y="140" width="280" height="56" rx="8" fill="#fff7ed" stroke="#fdba74"/>
  <rect x="56" y="156" width="80" height="24" rx="4" fill="#ea580c" opacity="0.2"/>
  <rect x="150" y="156" width="150" height="12" rx="4" fill="#fed7aa"/>
  <rect x="150" y="174" width="100" height="10" rx="4" fill="#ffedd5"/>
  <rect x="40" y="210" width="280" height="56" rx="8" fill="#fff7ed" stroke="#fdba74"/>
  <rect x="56" y="226" width="80" height="24" rx="4" fill="#ea580c" opacity="0.2"/>
  <rect x="150" y="226" width="150" height="12" rx="4" fill="#fed7aa"/>
  <rect x="40" y="280" width="280" height="56" rx="8" fill="#fff7ed" stroke="#fdba74"/>
  <rect x="56" y="296" width="80" height="24" rx="4" fill="#ea580c" opacity="0.2"/>
  <rect x="150" y="296" width="150" height="12" rx="4" fill="#fed7aa"/>
  <rect x="40" y="520" width="200" height="36" rx="8" fill="#fff7ed" stroke="#fdba74"/>
  <rect x="250" y="520" width="70" height="36" rx="8" fill="#ea580c"/>
  <text x="180" y="580" text-anchor="middle" font-family="sans-serif" font-size="14" fill="#c2410c">Menu &amp; Cart</text>
</svg>
