<svg xmlns="http://www.w3.org/2000/svg" width="360" height="640" viewBox="0 0 360 640">
  <rect width="360" height="640" fill="#fff7ed"/>
  <rect x="20" y="40" width="320" height="560" rx="16" fill="#fff" stroke="#fed7aa"/>
  <rect x="40" y="60" width="280" height="40" rx="4" fill="#ffedd5"/>
  <rect x="40" y="120" width="130" height="70" rx="8" fill="#ea580c" opacity="0.15"/>
  <rect x="190" y="120" width="130" height="70" rx="8" fill="#ea580c" opacity="0.15"/>
  <rect x="40" y="210" width="280" height="48" rx="8" fill="#fff7ed" stroke="#fdba74"/>
  <rect x="56" y="224" width="60" height="20" rx="4" fill="#22c55e" opacity="0.3"/>
  <rect x="130" y="224" width="120" height="12" rx="4" fill="#fed7aa"/>
  <rect x="130" y="242" width="80" height="10" rx="4" fill="#ffedd5"/>
  <rect x="40" y="270" width="280" height="48" rx="8" fill="#fff7ed" stroke="#fdba74"/>
  <rect x="56" y="284" width="60" height="20" rx="4" fill="#eab308" opacity="0.3"/>
  <rect x="130" y="284" width="120" height="12" rx="4" fill="#fed7aa"/>
  <rect x="40" y="330" width="280" height="48" rx="8" fill="#fff7ed" stroke="#fdba74"/>
  <rect x="56" y="344" width="60" height="20" rx="4" fill="#3b82f6" opacity="0.3"/>
  <rect x="130" y="344" width="120" height="12" rx="4" fill="#fed7aa"/>
  <text x="180" y="480" text-anchor="middle" font-family="sans-serif" font-size="14" fill="#c2410c">Kitchen Dashboard</text>
</svg>
