<svg xmlns="http://www.w3.org/2000/svg" width="360" height="640" viewBox="0 0 360 640">
  <rect width="360" height="640" fill="#fff7ed"/>
  <rect x="20" y="40" width="320" height="560" rx="16" fill="#fff" stroke="#fed7aa"/>
  <rect x="40" y="80" width="280" height="120" rx="12" fill="#fff7ed" stroke="#fdba74"/>
  <circle cx="70" cy="110" r="16" fill="#ea580c" opacity="0.3"/>
  <rect x="100" y="100" width="180" height="14" rx="4" fill="#fed7aa"/>
  <rect x="100" y="122" width="140" height="10" rx="4" fill="#ffedd5"/>
  <rect x="100" y="150" width="200" height="10" rx="4" fill="#ffedd5"/>
  <rect x="40" y="230" width="280" height="100" rx="12" fill="#ecfdf5" stroke="#6ee7b7"/>
  <rect x="60" y="250" width="240" height="12" rx="4" fill="#065f46" opacity="0.3"/>
  <rect x="60" y="272" width="200" height="10" rx="4" fill="#6ee7b7" opacity="0.5"/>
  <rect x="60" y="294" width="160" height="10" rx="4" fill="#6ee7b7" opacity="0.5"/>
  <rect x="40" y="360" width="280" height="80" rx="12" fill="#fff7ed" stroke="#fdba74"/>
  <rect x="60" y="380" width="60" height="20" rx="4" fill="#3b82f6" opacity="0.3"/>
  <rect x="130" y="380" width="170" height="12" rx="4" fill="#fed7aa"/>
  <rect x="130" y="400" width="120" height="10" rx="4" fill="#ffedd5"/>
  <text x="180" y="520" text-anchor="middle" font-family="sans-serif" font-size="14" fill="#c2410c">SMS &amp; Delivery</text>
</svg>
