<svg xmlns="http://www.w3.org/2000/svg" width="360" height="640" viewBox="0 0 360 640">
  <rect width="360" height="640" fill="#fff7ed"/>
  <rect x="20" y="40" width="320" height="560" rx="16" fill="#fff" stroke="#fed7aa"/>
  <rect x="40" y="60" width="180" height="20" rx="4" fill="#ffedd5"/>
  <rect x="40" y="100" width="280" height="36" rx="6" fill="#fff7ed" stroke="#fdba74"/>
  <rect x="56" y="110" width="60" height="16" rx="4" fill="#ea580c" opacity="0.25"/>
  <rect x="130" y="110" width="50" height="16" rx="4" fill="#fed7aa"/>
  <rect x="200" y="110" width="50" height="16" rx="4" fill="#fed7aa"/>
  <rect x="270" y="110" width="34" height="16" rx="4" fill="#ea580c" opacity="0.4"/>
  <rect x="40" y="150" width="280" height="36" rx="6" fill="#fff7ed" stroke="#fdba74"/>
  <rect x="56" y="160" width="60" height="16" rx="4" fill="#ea580c" opacity="0.25"/>
  <rect x="130" y="160" width="50" height="16" rx="4" fill="#fed7aa"/>
  <rect x="200" y="160" width="50" height="16" rx="4" fill="#fed7aa"/>
  <rect x="270" y="160" width="34" height="16" rx="4" fill="#ea580c" opacity="0.4"/>
  <rect x="40" y="200" width="280" height="36" rx="6" fill="#fff7ed" stroke="#fdba74"/>
  <rect x="56" y="210" width="60" height="16" rx="4" fill="#ea580c" opacity="0.25"/>
  <rect x="130" y="210" width="50" height="16" rx="4" fill="#fed7aa"/>
  <rect x="200" y="210" width="50" height="16" rx="4" fill="#fed7aa"/>
  <rect x="270" y="210" width="34" height="16" rx="4" fill="#ea580c" opacity="0.4"/>
  <rect x="40" y="260" width="280" height="36" rx="6" fill="#fff7ed" stroke="#fdba74"/>
  <rect x="56" y="270" width="60" height="16" rx="4" fill="#ea580c" opacity="0.25"/>
  <rect x="130" y="270" width="50" height="16" rx="4" fill="#fed7aa"/>
  <rect x="200" y="270" width="50" height="16" rx="4" fill="#fed7aa"/>
  <rect x="270" y="270" width="34" height="16" rx="4" fill="#ea580c" opacity="0.4"/>
  <rect x="40" y="320" width="130" height="50" rx="8" fill="#ea580c" opacity="0.15" stroke="#fdba74"/>
  <text x="105" y="352" text-anchor="middle" font-family="sans-serif" font-size="18" fill="#c2410c">42</text>
  <rect x="190" y="320" width="130" height="50" rx="8" fill="#ea580c" opacity="0.15" stroke="#fdba74"/>
  <text x="255" y="352" text-anchor="middle" font-family="sans-serif" font-size="18" fill="#c2410c">38</text>
  <text x="180" y="580" text-anchor="middle" font-family="sans-serif" font-size="14" fill="#c2410c">Kitchen Dashboard</text>
</svg>
